<svg version="1.1" xmlns="http://www.w3.org/2000/svg" xmlns:xlink="http://www.w3.org/1999/xlink" x="0px" y="0px" width="512px" height="512px" viewBox="0 0 512 512" style="enable-background:new 0 0 512 512;" xml:space="preserve">
<g id="B_-_118_x2C__Profile_x2C__Abilities_x2C__business_x2C__employee_x2C__job_x2C__man_x2C__resume_x2C__skills">
	<g>
		<g>
			<path d="M237.385,438.889H99.871c-1.986,0-3.597-1.61-3.597-3.597V83.696c0-1.986,1.61-3.597,3.597-3.597h282.732
				c1.986,0,3.597,1.61,3.597,3.597v132.079c0,1.986-1.61,3.597-3.597,3.597s-3.597-1.61-3.597-3.597V87.292H103.467v344.403
				h133.917c1.986,0,3.597,1.61,3.597,3.597S239.371,438.889,237.385,438.889z" id="id_101" style="fill: rgb(19, 224, 204);"></path>
		</g>
		<g>
			<path d="M171.48,169.459h-40.069c-1.986,0-3.597-1.61-3.597-3.597v-40.077c0-1.986,1.61-3.597,3.597-3.597h40.069
				c1.986,0,3.597,1.61,3.597,3.597v40.077C175.077,167.849,173.467,169.459,171.48,169.459z M135.008,162.266h32.876v-32.883
				h-32.876V162.266z" id="id_102" style="fill: rgb(19, 224, 204);"></path>
		</g>
		<g>
			<path d="M171.48,245.382h-40.069c-1.986,0-3.597-1.61-3.597-3.597v-40.069c0-1.986,1.61-3.597,3.597-3.597h40.069
				c1.986,0,3.597,1.61,3.597,3.597v40.069C175.077,243.772,173.467,245.382,171.48,245.382z M135.008,238.189h32.876v-32.876
				h-32.876V238.189z" id="id_103" style="fill: rgb(19, 224, 204);"></path>
		</g>
		<g>
			<path d="M171.48,321.392h-40.069c-1.986,0-3.597-1.61-3.597-3.597v-40.157c0-1.986,1.61-3.597,3.597-3.597h40.069
				c1.986,0,3.597,1.61,3.597,3.597v40.157C175.077,319.781,173.467,321.392,171.48,321.392z M135.008,314.198h32.876v-32.964
				h-32.876V314.198z" id="id_104" style="fill: rgb(19, 224, 204);"></path>
		</g>
		<g>
			<path d="M171.48,397.321h-40.069c-1.986,0-3.597-1.61-3.597-3.597V353.56c0-1.986,1.61-3.597,3.597-3.597h40.069
				c1.986,0,3.597,1.61,3.597,3.597v40.165C175.077,395.711,173.467,397.321,171.48,397.321z M135.008,390.128h32.876v-32.972
				h-32.876V390.128z" id="id_105" style="fill: rgb(19, 224, 204);"></path>
		</g>
		<g>
			<path d="M294.857,142.3H189.549c-1.986,0-3.597-1.61-3.597-3.597s1.61-3.597,3.597-3.597h105.308c1.986,0,3.597,1.61,3.597,3.597
				S296.844,142.3,294.857,142.3z" id="id_106" style="fill: rgb(19, 224, 204);"></path>
		</g>
		<g>
			<path d="M255.707,156.542h-66.158c-1.986,0-3.597-1.61-3.597-3.597s1.61-3.597,3.597-3.597h66.158
				c1.986,0,3.597,1.61,3.597,3.597S257.693,156.542,255.707,156.542z" id="id_107" style="fill: rgb(19, 224, 204);"></path>
		</g>
		<g>
			<path d="M294.857,218.231H189.549c-1.986,0-3.597-1.61-3.597-3.597s1.61-3.597,3.597-3.597h105.308
				c1.986,0,3.597,1.61,3.597,3.597S296.844,218.231,294.857,218.231z" id="id_108" style="fill: rgb(19, 224, 204);"></path>
		</g>
		<g>
			<path d="M255.707,232.464h-66.158c-1.986,0-3.597-1.61-3.597-3.597s1.61-3.597,3.597-3.597h66.158
				c1.986,0,3.597,1.61,3.597,3.597S257.693,232.464,255.707,232.464z" id="id_109" style="fill: rgb(19, 224, 204);"></path>
		</g>
		<g>
			<path d="M294.857,294.152H189.549c-1.986,0-3.597-1.61-3.597-3.597s1.61-3.597,3.597-3.597h105.308
				c1.986,0,3.597,1.61,3.597,3.597S296.844,294.152,294.857,294.152z" id="id_110" style="fill: rgb(19, 224, 204);"></path>
		</g>
		<g>
			<path d="M255.707,308.385h-66.158c-1.986,0-3.597-1.61-3.597-3.597s1.61-3.597,3.597-3.597h66.158
				c1.986,0,3.597,1.61,3.597,3.597S257.693,308.385,255.707,308.385z" id="id_111" style="fill: rgb(19, 224, 204);"></path>
		</g>
		<g>
			<path d="M275.964,370.162h-86.415c-1.986,0-3.597-1.61-3.597-3.597s1.61-3.597,3.597-3.597h86.415
				c1.986,0,3.597,1.61,3.597,3.597S277.95,370.162,275.964,370.162z" id="id_112" style="fill: rgb(19, 224, 204);"></path>
		</g>
		<g>
			<path d="M251.364,384.317h-61.814c-1.986,0-3.597-1.61-3.597-3.597s1.61-3.597,3.597-3.597h61.814
				c1.986,0,3.597,1.61,3.597,3.597S253.35,384.317,251.364,384.317z" id="id_113" style="fill: rgb(19, 224, 204);"></path>
		</g>
		<g>
			<path d="M99.871,395.562H55.49c-1.986,0-3.597-1.61-3.597-3.597V40.377c0-1.986,1.61-3.597,3.597-3.597h282.765
				c1.986,0,3.597,1.61,3.597,3.597v43.318c0,1.986-1.61,3.597-3.597,3.597H103.467v304.672
				C103.467,393.951,101.857,395.562,99.871,395.562z M59.087,388.368h37.187V83.696c0-1.986,1.61-3.597,3.597-3.597h234.788V43.974
				H59.087V388.368z" id="id_114" style="fill: rgb(19, 224, 204);"></path>
		</g>
		<g>
			<path d="M153.509,231.759c-1.141,0-2.258-0.543-2.953-1.541l-7.165-10.28c-1.136-1.629-0.735-3.872,0.894-5.007
				c1.628-1.136,3.871-0.736,5.007,0.894l5.275,7.568l22.815-13.196c1.72-0.995,3.92-0.407,4.914,1.313
				c0.995,1.719,0.407,3.919-1.313,4.914l-25.677,14.852C154.742,231.603,154.123,231.759,153.509,231.759z" id="id_115" style="fill: rgb(19, 224, 204);"></path>
		</g>
		<g>
			<path d="M153.509,379.655c-1.141,0-2.258-0.542-2.953-1.54l-7.165-10.278c-1.136-1.629-0.736-3.871,0.894-5.007
				c1.628-1.139,3.871-0.736,5.007,0.894l5.275,7.566l22.815-13.195c1.72-0.996,3.92-0.407,4.914,1.313
				c0.995,1.72,0.407,3.92-1.313,4.914l-25.677,14.851C154.742,379.499,154.122,379.655,153.509,379.655z" id="id_116" style="fill: rgb(19, 224, 204);"></path>
		</g>
		<g>
			<path d="M75.397,395.562c-1.986,0-3.597-1.61-3.597-3.597v-201.32c0-1.986,1.61-3.597,3.597-3.597s3.597,1.61,3.597,3.597v201.32
				C78.994,393.951,77.384,395.562,75.397,395.562z" id="id_117" style="fill: rgb(19, 224, 204);"></path>
		</g>
		<g>
			<path d="M391.067,424.124h-25.043c-1.986,0-3.597-1.61-3.597-3.597s1.61-3.597,3.597-3.597h25.043
				c1.986,0,3.597,1.61,3.597,3.597S393.054,424.124,391.067,424.124z" id="id_118" style="fill: rgb(19, 224, 204);"></path>
		</g>
		<g>
			<path d="M391.067,439.854h-25.043c-1.986,0-3.597-1.61-3.597-3.597s1.61-3.597,3.597-3.597h25.043
				c1.986,0,3.597,1.61,3.597,3.597S393.054,439.854,391.067,439.854z" id="id_119" style="fill: rgb(19, 224, 204);"></path>
		</g>
		<g>
			<path d="M346.024,475.219c-36.523,0-73.285-4.245-109.266-12.618c-1.628-0.379-2.781-1.831-2.781-3.503
				c0-9.094-0.104-16.923-0.195-23.83c-0.631-47.769,0.085-49.067,38.331-69.447c7.69-4.099,17.262-9.199,28.694-15.731
				c0.838-0.479,1.834-0.599,2.762-0.339c0.929,0.263,1.713,0.887,2.177,1.733l24.771,45.191l13.821-13.765
				c1.37-1.364,3.572-1.401,4.987-0.085l12.555,11.672l26.208-43.152c1.013-1.667,3.17-2.221,4.86-1.255
				c11.194,6.407,20.625,11.456,28.202,15.513c38.705,20.723,39.432,22.039,38.833,70.387c-0.083,6.717-0.177,14.331-0.177,23.108
				c0,1.682-1.165,3.139-2.806,3.509C419.879,470.976,382.541,475.219,346.024,475.219z M241.167,456.232
				c34.558,7.826,69.822,11.793,104.857,11.793c35.066,0,70.913-3.974,106.593-11.813c0.018-7.616,0.101-14.32,0.175-20.313
				c0.283-22.881,0.425-34.366-3.735-41.933c-4.104-7.462-13.192-12.328-31.3-22.023c-6.922-3.706-15.382-8.235-25.335-13.876
				l-26.684,43.935c-0.562,0.924-1.509,1.547-2.579,1.695c-1.074,0.145-2.153-0.192-2.944-0.929l-13.252-12.32l-14.761,14.7
				c-0.801,0.797-1.932,1.176-3.051,1.011c-1.119-0.161-2.098-0.839-2.642-1.831l-25.316-46.186
				c-10.125,5.727-18.688,10.289-25.697,14.024c-17.867,9.521-26.835,14.301-30.873,21.642c-4.096,7.446-3.946,18.781-3.647,41.363
				C241.058,441.367,241.149,448.301,241.167,456.232z" id="id_120" style="fill: rgb(19, 224, 204);"></path>
		</g>
		<g>
			<path d="M347.859,346.26c-37.909,0-57.74-56.111-57.74-86.191c0-33.385,25.902-60.546,57.74-60.546
				c31.855,0,57.772,27.161,57.772,60.546C405.632,290.148,385.79,346.26,347.859,346.26z M347.859,206.715
				c-27.872,0-50.547,23.934-50.547,53.353c0,26.813,17.842,78.998,50.547,78.998c32.727,0,50.579-52.186,50.579-78.998
				C398.438,230.649,375.749,206.715,347.859,206.715z" id="id_121" style="fill: rgb(19, 224, 204);"></path>
		</g>
		<g>
			<path d="M362.664,403.732c-0.902,0-1.779-0.34-2.449-0.963l-15.787-14.677c-1.335-1.241-1.53-3.286-0.453-4.758l31.892-43.58
				c0.604-0.825,1.529-1.354,2.546-1.455c1.018-0.103,2.029,0.235,2.783,0.925l12.395,11.333c1.269,1.159,1.539,3.053,0.647,4.521
				l-28.499,46.924c-0.562,0.924-1.509,1.547-2.579,1.695C362.994,403.721,362.828,403.732,362.664,403.732z M351.668,385.002
				l10.213,9.495l24.674-40.626l-7.253-6.631L351.668,385.002z" id="id_122" style="fill: rgb(19, 224, 204);"></path>
		</g>
		<g>
			<path d="M329.664,406.197c-0.17,0-0.342-0.012-0.513-0.037c-1.119-0.161-2.098-0.839-2.642-1.831l-27.072-49.389
				c-0.797-1.454-0.496-3.264,0.728-4.383l12.395-11.333c0.754-0.689,1.764-1.023,2.783-0.925c1.017,0.102,1.942,0.63,2.546,1.455
				l31.891,43.58c1.05,1.434,0.895,3.419-0.364,4.673l-17.213,17.142C331.523,405.825,330.608,406.197,329.664,406.197z
				 M307.104,353.96l23.414,42.715l11.633-11.585l-27.697-37.85L307.104,353.96z" id="id_123" style="fill: rgb(19, 224, 204);"></path>
		</g>
		<g>
			<path d="M331.722,260.914c-1.994,0-3.996-0.163-5.966-0.5c-9.332-1.598-16.724-6.848-20.813-14.786
				c-0.91-1.766-0.216-3.935,1.55-4.844c1.767-0.91,3.936-0.216,4.845,1.55c3.883,7.537,10.644,10.136,15.632,10.99
				c7.742,1.323,16.324-0.738,20.863-5.018c10.905-10.31,13.735-12.048,16.828-10.337c2.86,1.583,2.204,4.864,1.771,7.035
				c-0.096,0.479-0.238,1.191-0.323,1.813c0.396-0.095,0.918-0.249,1.586-0.496c9.918-3.668,17.379-4.281,22.173-1.822
				c2.592,1.329,4.382,3.555,5.176,6.436c0.527,1.915-0.598,3.896-2.513,4.423c-1.913,0.53-3.895-0.597-4.423-2.512
				c-0.262-0.951-0.717-1.533-1.522-1.946c-2.76-1.417-8.891-0.606-16.396,2.168c-2.66,0.982-6.515,2.02-9.258-0.325
				c-1.524-1.302-2.021-3.037-2.071-4.775c-1.499,1.306-3.479,3.102-6.088,5.569C347.813,258.212,339.84,260.914,331.722,260.914z" id="id_124" style="fill: rgb(19, 224, 204);"></path>
		</g>
	</g>
</g>
<g id="Layer_1">
</g>
</svg>