<svg version="1.1" id="Layer_1" xmlns="http://www.w3.org/2000/svg" xmlns:xlink="http://www.w3.org/1999/xlink" x="0px" y="0px" viewBox="0 0 24 24" enable-background="new 0 0 24 24" xml:space="preserve">
<g>
	<path fill="#13e0cc" d="M9.1796875,16.3842773C9.2734375,16.4619141,9.3867188,16.5,9.4995117,16.5
		c0.1435547,0,0.2856445-0.0610352,0.3847656-0.1796875c0.1767578-0.2124023,0.1479492-0.527832-0.0639648-0.7045898L7.28125,13.5
		l2.5390625-2.1157227c0.2119141-0.1767578,0.2407227-0.4921875,0.0639648-0.7045898
		c-0.1772461-0.2119141-0.4916992-0.2397461-0.7045898-0.0639648l-3,2.5C6.065918,13.2109375,6,13.3515625,6,13.5
		s0.065918,0.2890625,0.1796875,0.3842773L9.1796875,16.3842773z" id="id_101"></path>
	<path fill="#13e0cc" d="M14.1157227,16.3203125C14.2148438,16.4389648,14.3569336,16.5,14.5004883,16.5
		c0.112793,0,0.2260742-0.0380859,0.3198242-0.1157227l3-2.5C17.934082,13.7890625,18,13.6484375,18,13.5
		s-0.065918-0.2890625-0.1796875-0.3842773l-3-2.5c-0.2128906-0.1757813-0.5273438-0.1479492-0.7045898,0.0639648
		c-0.1767578,0.2124023-0.1479492,0.527832,0.0639648,0.7045898L16.71875,13.5l-2.5390625,2.1157227
		C13.9677734,15.7924805,13.9389648,16.1079102,14.1157227,16.3203125z" id="id_102"></path>
	<path fill="#13e0cc" d="M10.3032227,17.4594727C10.3671875,17.4873047,10.434082,17.5,10.5,17.5
		c0.1938477,0,0.378418-0.1132813,0.4594727-0.3032227l3-7c0.1088867-0.253418-0.0087891-0.5473633-0.2626953-0.65625
		c-0.2524414-0.1098633-0.5473633,0.0078125-0.65625,0.2626953l-3,7
		C9.9316406,17.0566406,10.0493164,17.3505859,10.3032227,17.4594727z" id="id_103"></path>
	<path fill="#13e0cc" d="M21,1H3C1.8974609,1,1,1.8969727,1,3v18c0,1.1030273,0.8974609,2,2,2h18c1.1025391,0,2-0.8969727,2-2V3
		C23,1.8969727,22.1025391,1,21,1z M7.5,3C7.776123,3,8,3.2238159,8,3.5C8,3.776123,7.776123,4,7.5,4S7,3.776123,7,3.5
		C7,3.2238159,7.223877,3,7.5,3z M5.5,3C5.776123,3,6,3.2238159,6,3.5C6,3.776123,5.776123,4,5.5,4S5,3.776123,5,3.5
		C5,3.2238159,5.223877,3,5.5,3z M3.5,3C3.776123,3,4,3.2238159,4,3.5C4,3.776123,3.776123,4,3.5,4S3,3.776123,3,3.5
		C3,3.2238159,3.223877,3,3.5,3z M21,21H3V6h18V21z" id="id_104"></path>
</g>
<g>
</g>
<g>
</g>
<g>
</g>
<g>
</g>
<g>
</g>
<g>
</g>
<g>
</g>
<g>
</g>
<g>
</g>
<g>
</g>
<g>
</g>
<g>
</g>
<g>
</g>
<g>
</g>
<g>
</g>
</svg>